<svg width="65" height="64" viewBox="0 0 65 64" fill="none" xmlns="http://www.w3.org/2000/svg">
<rect x="0.666748" width="64" height="64" rx="32" fill="#9CA3AF"/>
<path fill-rule="evenodd" clip-rule="evenodd" d="M25.1667 22C25.1667 20.0109 25.9569 18.1032 27.3634 16.6967C28.77 15.2902 30.6776 14.5 32.6667 14.5C34.6559 14.5 36.5635 15.2902 37.97 16.6967C39.3766 18.1032 40.1667 20.0109 40.1667 22C40.1667 23.9891 39.3766 25.8968 37.97 27.3033C36.5635 28.7098 34.6559 29.5 32.6667 29.5C30.6776 29.5 28.77 28.7098 27.3634 27.3033C25.9569 25.8968 25.1667 23.9891 25.1667 22ZM18.9184 45.5083C18.9746 41.8991 20.4478 38.4568 23.02 35.9243C25.5922 33.3918 29.0571 31.9724 32.6667 31.9724C36.2764 31.9724 39.7413 33.3918 42.3135 35.9243C44.8857 38.4568 46.3589 41.8991 46.4151 45.5083C46.4194 45.7513 46.3528 45.9903 46.2235 46.196C46.0941 46.4017 45.9076 46.5653 45.6867 46.6667C41.602 48.5395 37.1603 49.5061 32.6667 49.5C28.0234 49.5 23.6117 48.4867 19.6467 46.6667C19.4259 46.5653 19.2394 46.4017 19.11 46.196C18.9807 45.9903 18.9141 45.7513 18.9184 45.5083Z" fill="black"/>
</svg>
