<svg width="52" height="52" viewBox="0 0 52 52" fill="none" xmlns="http://www.w3.org/2000/svg">
<path d="M49.994 23.4666L28.2606 1.73329C27.594 1.06663 26.6606 0.666626 25.7273 0.666626C24.794 0.666626 23.8606 1.06663 23.194 1.73329L18.5273 6.39996L23.994 11.8666C24.5273 11.6 25.0606 11.4666 25.7273 11.4666C27.994 11.4666 29.7273 13.2 29.7273 15.4666C29.7273 16.1333 29.594 16.6666 29.3273 17.2L34.6606 22.5333C35.194 22.2666 35.7273 22.1333 36.394 22.1333C38.6606 22.1333 40.394 23.8666 40.394 26.1333C40.394 28.4 38.6606 30.1333 36.394 30.1333C34.1273 30.1333 32.394 28.4 32.394 26.1333C32.394 25.4666 32.5273 24.9333 32.794 24.4L27.4606 19.0666C27.3273 19.0666 27.194 19.2 27.0606 19.2V33.0666C28.6606 33.6 29.7273 35.0666 29.7273 36.8C29.7273 39.0666 27.994 40.8 25.7273 40.8C23.4606 40.8 21.7273 39.0666 21.7273 36.8C21.7273 35.0666 22.794 33.6 24.394 33.0666V19.0666C22.794 18.5333 21.7273 17.0666 21.7273 15.3333C21.7273 14.6666 21.8606 14.1333 22.1273 13.6L16.6606 8.13329L1.46062 23.4666C0.793952 24.1333 0.393951 25.0666 0.393951 26C0.393951 26.9333 0.793952 27.8666 1.46062 28.5333L23.194 50.2666C23.8606 50.9333 24.794 51.3333 25.7273 51.3333C26.6606 51.3333 27.594 50.9333 28.2606 50.2666L49.994 28.5333C50.6606 27.8666 51.0606 26.9333 51.0606 26C51.0606 25.0666 50.6606 24.1333 49.994 23.4666Z" fill="#F4511E"/>
</svg>
