<svg width="64" height="64" viewBox="0 0 64 64" fill="none" xmlns="http://www.w3.org/2000/svg">
<g clip-path="url(#clip0_10_2043)">
<path d="M61 0H3C1.34315 0 0 1.34315 0 3V61C0 62.6569 1.34315 64 3 64H61C62.6569 64 64 62.6569 64 61V3C64 1.34315 62.6569 0 61 0Z" fill="#3178C6"/>
<path fill-rule="evenodd" clip-rule="evenodd" d="M37.1311 49.734V56.747C38.2673 57.331 39.611 57.7695 41.1623 58.0615C42.7137 58.354 44.3488 58.5 46.0676 58.5C47.7428 58.5 49.3341 58.3395 50.8415 58.018C52.3495 57.6965 53.671 57.167 54.8075 56.429C55.9435 55.691 56.843 54.727 57.506 53.536C58.1685 52.3455 58.5 50.8735 58.5 49.1203C58.5 47.8493 58.3105 46.7353 57.932 45.7783C57.553 44.8214 57.007 43.9704 56.293 43.2252C55.5795 42.4801 54.7235 41.8117 53.726 41.22C52.728 40.6283 51.603 40.0694 50.35 39.5435C49.4324 39.1636 48.6094 38.7947 47.8811 38.4368C47.1527 38.0788 46.5337 37.7136 46.0239 37.341C45.514 36.9684 45.1208 36.574 44.844 36.1576C44.5673 35.7413 44.4288 35.27 44.4288 34.7441C44.4288 34.2619 44.5527 33.8273 44.8003 33.4402C45.048 33.053 45.3975 32.7206 45.8491 32.443C46.3006 32.1655 46.8542 31.95 47.5097 31.7966C48.1651 31.6431 48.8934 31.5664 49.6946 31.5664C50.2775 31.5664 50.8925 31.6103 51.541 31.6979C52.189 31.7856 52.841 31.9207 53.4965 32.1034C54.152 32.286 54.789 32.5161 55.4085 32.7937C56.0275 33.0713 56.599 33.3927 57.1235 33.7579V27.2054C56.06 26.7963 54.8985 26.4931 53.6385 26.2959C52.3785 26.0986 50.933 26 49.3013 26C47.6408 26 46.0676 26.1789 44.5818 26.5369C43.0961 26.8948 41.7887 27.4537 40.6598 28.2134C39.5309 28.9731 38.6387 29.941 37.9832 31.1171C37.3277 32.2932 37 33.6995 37 35.3358C37 37.4251 37.6009 39.2074 38.8026 40.683C40.0044 42.1587 41.8288 43.4079 44.2759 44.4305C45.2373 44.825 46.1332 45.2122 46.9634 45.592C47.7937 45.9719 48.5111 46.3664 49.1156 46.7755C49.7201 47.1846 50.197 47.6302 50.5465 48.1123C50.8965 48.5944 51.071 49.1423 51.071 49.7559C51.071 50.209 50.962 50.629 50.7435 51.016C50.525 51.403 50.1935 51.739 49.7492 52.024C49.3049 52.309 48.7514 52.532 48.0886 52.6925C47.4259 52.853 46.6502 52.9335 45.7617 52.9335C44.2467 52.9335 42.7465 52.667 41.2607 52.1335C39.7749 51.6005 38.3984 50.8005 37.1311 49.734ZM25.3513 32.2772H34.5V26.5H9V32.2772H18.104V58H25.3513V32.2772Z" fill="white"/>
</g>
<defs>
<clipPath id="clip0_10_2043">
<rect width="64" height="64" fill="white"/>
</clipPath>
</defs>
</svg>
