<svg width="65" height="64" viewBox="0 0 65 64" fill="none" xmlns="http://www.w3.org/2000/svg">
<g clip-path="url(#clip0_10_2056)">
<mask id="mask0_10_2056" style="mask-type:alpha" maskUnits="userSpaceOnUse" x="0" y="0" width="65" height="64">
<path d="M32.8181 64C50.4912 64 64.8181 49.6731 64.8181 32C64.8181 14.3269 50.4912 0 32.8181 0C15.145 0 0.818115 14.3269 0.818115 32C0.818115 49.6731 15.145 64 32.8181 64Z" fill="black"/>
</mask>
<g mask="url(#mask0_10_2056)">
<path d="M32.8181 62.9333C49.9021 62.9333 63.7514 49.084 63.7514 32C63.7514 14.916 49.9021 1.06665 32.8181 1.06665C15.7341 1.06665 1.88477 14.916 1.88477 32C1.88477 49.084 15.7341 62.9333 32.8181 62.9333Z" fill="black" stroke="white" stroke-width="6"/>
<path d="M53.9765 56.0071L25.4019 19.2H20.0181V44.7893H24.3252V24.6697L50.5956 58.6115C51.781 57.8183 52.9102 56.9475 53.9765 56.0071Z" fill="url(#paint0_linear_10_2056)"/>
<path d="M45.9736 19.2H41.707V44.8H45.9736V19.2Z" fill="url(#paint1_linear_10_2056)"/>
</g>
</g>
<defs>
<linearGradient id="paint0_linear_10_2056" x1="39.5737" y1="41.4222" x2="52.1959" y2="57.0666" gradientUnits="userSpaceOnUse">
<stop stop-color="white"/>
<stop offset="1" stop-color="white" stop-opacity="0"/>
</linearGradient>
<linearGradient id="paint1_linear_10_2056" x1="43.8403" y1="19.2" x2="43.7688" y2="38" gradientUnits="userSpaceOnUse">
<stop stop-color="white"/>
<stop offset="1" stop-color="white" stop-opacity="0"/>
</linearGradient>
<clipPath id="clip0_10_2056">
<rect width="64" height="64" fill="white" transform="translate(0.818115)"/>
</clipPath>
</defs>
</svg>
