<svg width="57" height="64" viewBox="0 0 57 64" fill="none" xmlns="http://www.w3.org/2000/svg">
<g clip-path="url(#clip0_10_2066)">
<path d="M28.4177 64C27.5597 64 26.7589 63.7668 26.0153 63.3586L18.408 58.7517C17.2641 58.1102 17.836 57.877 18.1792 57.7603C19.7236 57.2355 20.0096 57.1189 21.6111 56.1859C21.7827 56.0692 22.0115 56.1275 22.183 56.2442L28.0172 59.8014C28.2461 59.918 28.5321 59.918 28.7036 59.8014L51.5256 46.3307C51.7544 46.214 51.8688 45.9808 51.8688 45.6892V18.806C51.8688 18.5145 51.7544 18.2812 51.5256 18.1646L28.7036 4.75223C28.4749 4.63561 28.1888 4.63561 28.0172 4.75223L5.19531 18.1646C4.96652 18.2812 4.85212 18.5728 4.85212 18.806V45.6892C4.85212 45.9224 4.96652 46.214 5.19531 46.3307L11.4299 50.0045C14.8046 51.7539 16.9208 49.7129 16.9208 47.6719V21.1386C16.9208 20.7888 17.2069 20.4389 17.6072 20.4389H20.5244C20.8675 20.4389 21.2107 20.7305 21.2107 21.1386V47.6719C21.2107 52.2788 18.7512 54.9613 14.4613 54.9613C13.1458 54.9613 12.1163 54.9613 9.19914 53.5034L3.19339 50.0045C1.70624 49.1297 0.791077 47.4969 0.791077 45.7475V18.8644C0.791077 17.115 1.70624 15.4822 3.19339 14.6074L26.0153 1.13672C27.4453 0.320313 29.39 0.320313 30.82 1.13672L53.6419 14.6074C55.1291 15.4822 56.0442 17.115 56.0442 18.8644V45.7475C56.0442 47.4969 55.1291 49.1297 53.6419 50.0045L30.82 63.4752C30.1336 63.7668 29.2756 64 28.4177 64Z" fill="#5FA04E"/>
<path d="M35.5102 45.5142C25.5006 45.5142 23.4415 40.849 23.4415 36.8836C23.4415 36.5337 23.7274 36.1839 24.1278 36.1839H27.1021C27.4453 36.1839 27.7313 36.4171 27.7313 36.767C28.1888 39.8576 29.5044 41.3738 35.5674 41.3738C40.372 41.3738 42.4311 40.2658 42.4311 37.6417C42.4311 36.1255 41.8591 35.0175 34.3662 34.2594C28.1317 33.6179 24.2422 32.2184 24.2422 27.145C24.2422 22.4215 28.1317 19.6224 34.6522 19.6224C41.9735 19.6224 45.577 22.1883 46.0346 27.7865C46.0346 27.9615 45.9774 28.1364 45.863 28.3114C45.7486 28.4279 45.577 28.5446 45.4054 28.5446H42.374C42.0879 28.5446 41.8019 28.3114 41.7448 28.0197C41.0584 24.8124 39.2852 23.7627 34.595 23.7627C29.3328 23.7627 28.7037 25.6289 28.7037 27.0284C28.7037 28.7195 29.4472 29.2444 36.5398 30.1774C43.5751 31.1104 46.8926 32.4517 46.8926 37.4668C46.8926 42.5984 42.7171 45.5142 35.5102 45.5142Z" fill="#5FA04E"/>
</g>
<defs>
<clipPath id="clip0_10_2066">
<rect width="56.32" height="64" fill="white" transform="translate(0.158203)"/>
</clipPath>
</defs>
</svg>
