<svg width="67" height="64" viewBox="0 0 67 64" fill="none" xmlns="http://www.w3.org/2000/svg">
<path fill-rule="evenodd" clip-rule="evenodd" d="M39.1057 1.06177C38.6539 1.06177 38.2344 1.15886 37.8472 1.2883C38.67 1.83845 39.1218 2.5666 39.3477 3.39183C39.3639 3.50509 39.3961 3.586 39.4123 3.69926C39.4285 3.79635 39.4445 3.89344 39.4445 3.99053C39.5091 5.41445 39.0734 5.59244 38.7668 6.43385C38.2989 7.51798 38.428 8.68301 38.9927 9.6215C39.0411 9.73477 39.1057 9.86421 39.1864 9.97748C38.5732 5.8837 41.9777 5.26882 42.607 3.99053C42.6554 2.87404 41.7357 2.12971 41.0096 1.61192C40.3158 1.19122 39.6865 1.06177 39.1057 1.06177ZM44.2366 1.98408C44.1721 2.35624 44.2205 2.25916 44.2044 2.45333C44.1882 2.58278 44.1882 2.74459 44.1721 2.87404C44.1399 3.00348 44.1076 3.13293 44.0592 3.26238C44.0269 3.39183 43.9785 3.52128 43.9301 3.65072C43.8655 3.78018 43.8172 3.89344 43.7526 4.02288C43.7042 4.08764 43.672 4.15233 43.6235 4.21706C43.5913 4.2656 43.559 4.31414 43.5267 4.36269C43.4461 4.47596 43.3654 4.58922 43.2847 4.6863C43.1879 4.78339 43.1072 4.89666 42.9943 4.97757V4.99377C42.8975 5.07467 42.8007 5.17176 42.6877 5.25266C42.3489 5.51155 41.9616 5.70573 41.6067 5.94844C41.4937 6.02935 41.3808 6.09407 41.284 6.19116C41.171 6.27206 41.0742 6.35296 40.9774 6.45005C40.8644 6.54714 40.7838 6.64423 40.687 6.75749C40.6063 6.85458 40.5095 6.96784 40.4449 7.08111C40.3643 7.19438 40.2836 7.30765 40.2191 7.42091C40.1545 7.55035 40.1061 7.66363 40.0416 7.79307C39.9932 7.92252 39.9448 8.03579 39.9125 8.16523C39.8641 8.31086 39.8318 8.44031 39.7995 8.56976C39.7834 8.63451 39.7834 8.71539 39.7673 8.78011C39.7511 8.84486 39.7511 8.90956 39.7351 8.97429C39.7351 9.10373 39.7189 9.24936 39.7189 9.37881C39.7189 9.47589 39.7189 9.57298 39.7351 9.67007C39.7351 9.79951 39.7512 9.92896 39.7835 10.0746C39.7996 10.204 39.8319 10.3335 39.8641 10.4629C39.9125 10.5924 39.9448 10.7218 39.9932 10.8513C40.0255 10.9322 40.0739 11.0131 40.1062 11.0778L36.3951 9.6377C35.7658 9.45971 35.1527 9.29791 34.5234 9.15228C34.1846 9.07137 33.8458 8.99046 33.5069 8.90956C32.5388 8.71539 31.5546 8.56976 30.5704 8.47268C30.5381 8.47268 30.522 8.45647 30.4897 8.45647C29.5216 8.35939 28.5696 8.31085 27.6015 8.31085C26.8916 8.31085 26.1816 8.34318 25.4878 8.39175C24.5036 8.4565 23.5193 8.58592 22.5351 8.74773C22.2931 8.78007 22.0511 8.82864 21.809 8.87718C21.3088 8.97426 20.8248 9.08753 20.3569 9.2008C20.1148 9.26555 19.8728 9.33025 19.6308 9.39497C19.3888 9.49205 19.1629 9.60532 18.937 9.70241C18.7595 9.78331 18.582 9.86422 18.4045 9.94513C18.3723 9.96133 18.34 9.96133 18.3239 9.97746C18.1625 10.0584 18.0173 10.1231 17.8721 10.204C17.8237 10.2202 17.7914 10.2363 17.7591 10.2525C17.5816 10.3334 17.4042 10.4305 17.259 10.5114C17.146 10.56 17.0331 10.6247 16.9362 10.6732C16.8878 10.7056 16.8233 10.738 16.791 10.7541C16.6458 10.8351 16.5006 10.916 16.3715 10.9969C16.2263 11.0778 16.0972 11.1587 15.9843 11.2396C15.8713 11.3205 15.7584 11.3852 15.6616 11.4661C15.6454 11.4823 15.6293 11.4823 15.6132 11.4984C15.5164 11.5632 15.4034 11.6441 15.3066 11.725C15.3066 11.725 15.2904 11.7412 15.2744 11.7573C15.1937 11.8221 15.113 11.8868 15.0323 11.9515C15.0001 11.9677 14.9678 12 14.9355 12.0162C14.8549 12.081 14.7742 12.1619 14.6935 12.2266C14.6773 12.2589 14.6451 12.2751 14.6289 12.2913C14.5321 12.3884 14.4353 12.4693 14.3385 12.5664C14.3223 12.5664 14.3223 12.5826 14.3063 12.5988C14.2095 12.6797 14.1126 12.7767 14.0158 12.8738C13.9997 12.89 13.9997 12.9062 13.9836 12.9062C13.9029 12.9871 13.8222 13.068 13.7416 13.1651C13.7093 13.1974 13.6609 13.2298 13.6286 13.2621C13.5479 13.3592 13.4511 13.4563 13.3543 13.5534C13.3382 13.5857 13.3059 13.6019 13.2898 13.6343C13.1607 13.7638 13.0477 13.8932 12.9187 14.0227C12.9025 14.0389 12.8864 14.055 12.8702 14.0712C12.6121 14.3463 12.3378 14.6213 12.0474 14.8641C11.7569 15.123 11.4504 15.3657 11.1438 15.576C10.8211 15.8026 10.5145 15.9967 10.1757 16.1909C9.85299 16.3689 9.51415 16.5307 9.15919 16.6763C8.82035 16.822 8.46538 16.9514 8.11041 17.0647C7.43273 17.2103 6.73893 17.4854 6.14193 17.5339C6.01285 17.5339 5.86764 17.5663 5.73856 17.5825C5.59334 17.6148 5.46426 17.6472 5.33519 17.6796C5.20611 17.7281 5.07702 17.7766 4.94794 17.8252C4.81886 17.8737 4.68978 17.9384 4.5607 18.0032C4.44776 18.0841 4.31868 18.1488 4.20573 18.2297C4.09279 18.3106 3.97984 18.4077 3.88303 18.5048C3.77009 18.5857 3.65714 18.699 3.56033 18.796C3.46352 18.9093 3.36671 19.0064 3.28603 19.1197C3.20536 19.2491 3.10855 19.3624 3.04401 19.4918C2.96333 19.6051 2.88266 19.7345 2.81812 19.864C2.75355 20.0096 2.68904 20.1391 2.64063 20.2847C2.59223 20.4141 2.54382 20.5598 2.49542 20.7054C2.46317 20.8348 2.43085 20.9643 2.41474 21.0937C2.41474 21.11 2.39858 21.1261 2.39858 21.1423C2.36634 21.2879 2.36634 21.4821 2.35018 21.5792C2.33402 21.6924 2.31793 21.7895 2.31793 21.9028C2.31793 21.9675 2.31793 22.0484 2.33409 22.1131C2.35025 22.2264 2.36634 22.3235 2.39866 22.4206C2.4309 22.5177 2.46322 22.6147 2.5116 22.7118V22.728C2.56 22.8251 2.62455 22.9222 2.68908 23.0193C2.75365 23.1164 2.81817 23.2135 2.89884 23.3106C2.97952 23.3915 3.07633 23.4885 3.17314 23.5695C3.26995 23.6665 3.36676 23.7474 3.4797 23.8283C3.86694 24.1681 3.96375 24.2814 4.46394 24.5403C4.54461 24.5889 4.62529 24.6212 4.72211 24.6698C4.73827 24.6698 4.75435 24.686 4.77051 24.686C4.77051 24.7183 4.77051 24.7345 4.78667 24.7669C4.80283 24.8963 4.83508 25.0258 4.86735 25.1552C4.89959 25.3008 4.94803 25.4303 4.99643 25.5436C5.04484 25.6406 5.07711 25.7377 5.12551 25.8348C5.14167 25.8672 5.15776 25.8996 5.17392 25.9157C5.23848 26.0452 5.303 26.1584 5.36753 26.2717C5.44821 26.385 5.52888 26.4982 5.60956 26.6115C5.69023 26.7086 5.78704 26.8219 5.88385 26.9189C5.98066 27.016 6.07748 27.0969 6.19042 27.194C6.19042 27.194 6.20659 27.2102 6.22267 27.2102C6.31948 27.2911 6.41629 27.3721 6.5131 27.4368C6.62604 27.5177 6.73899 27.5824 6.86807 27.6471C6.98102 27.7119 7.1101 27.7766 7.23918 27.8251C7.33599 27.8737 7.44893 27.906 7.56188 27.9384C7.57804 27.9546 7.59412 27.9546 7.62644 27.9707C7.69101 27.987 7.77165 28.0031 7.83619 28.0193C7.78779 28.893 7.77163 29.7183 7.90076 30.0095C8.04597 30.3331 8.75591 29.3461 9.46586 28.2134C9.36905 29.3299 9.3045 30.6406 9.46586 31.0289C9.64334 31.4334 10.6114 30.1713 11.4505 28.7798C22.8902 26.1261 33.3296 34.0548 34.4268 45.252C34.217 43.5044 32.071 42.5336 31.0868 42.7763C30.6028 43.9737 29.7799 45.5109 28.4568 46.4656C28.5697 45.3976 28.5214 44.2973 28.2954 43.2294C27.9405 44.718 27.2467 46.1096 26.2947 47.307C24.7619 47.4202 23.229 46.6759 22.4223 45.5594C22.3577 45.5109 22.3416 45.4138 22.2932 45.3491C22.2448 45.2358 22.1964 45.1226 22.1641 45.0093C22.1157 44.896 22.0835 44.7827 22.0673 44.6695C22.0511 44.5562 22.0511 44.4429 22.0511 44.3135C22.0511 44.2326 22.0511 44.1517 22.0511 44.0708C22.0673 43.9575 22.0996 43.8442 22.1318 43.731C22.1641 43.6177 22.1964 43.5044 22.2448 43.3912C22.3093 43.2779 22.3577 43.1646 22.4384 43.0514C22.7127 42.2747 22.7127 41.6436 22.2125 41.2715C22.1157 41.2067 22.0189 41.1582 21.9059 41.1097C21.8414 41.0935 21.7607 41.0611 21.6962 41.0449C21.6478 41.0287 21.6155 41.0126 21.5671 40.9964C21.4542 40.964 21.3412 40.9316 21.2283 40.9155C21.1153 40.8831 21.0024 40.8669 20.8894 40.8669C20.7765 40.8507 20.6474 40.8346 20.5345 40.8346C20.4538 40.8346 20.3731 40.8508 20.2924 40.8508C20.1634 40.8508 20.0504 40.867 19.9375 40.8993C19.8245 40.9156 19.7116 40.9317 19.5986 40.9641C19.4857 40.9964 19.3727 41.0288 19.2598 41.0774C19.1468 41.1259 19.05 41.1744 18.9371 41.223C18.8403 41.2715 18.7435 41.3362 18.6305 41.3848C14.8711 43.8443 17.1138 49.6047 19.6793 51.2714C18.7112 51.4493 17.727 51.6597 17.4527 51.8701C17.4365 51.8863 17.4204 51.9024 17.4204 51.9024C18.1142 52.3231 18.8403 52.6791 19.5986 52.9865C20.6313 53.3263 21.7285 53.6338 22.2125 53.7632V53.7794C23.5517 54.0545 24.9071 54.1516 26.2786 54.0707C33.4264 53.5691 39.2834 48.1161 40.3483 40.9317C40.3806 41.0773 40.4129 41.2068 40.4451 41.3524C40.4935 41.6437 40.5581 41.9511 40.5903 42.2586V42.2748C40.6226 42.4204 40.6387 42.566 40.6549 42.6955V42.7602C40.6711 42.9059 40.6871 43.0515 40.6871 43.1809C40.7033 43.3589 40.7194 43.5369 40.7194 43.7149V43.9738C40.7194 44.0547 40.7355 44.1518 40.7355 44.2327C40.7355 44.3298 40.7194 44.4269 40.7194 44.524V44.7505C40.7194 44.8638 40.7032 44.9608 40.7032 45.0741C40.7032 45.1389 40.7032 45.2036 40.6871 45.2845C40.6871 45.3977 40.6709 45.511 40.6709 45.6404C40.6547 45.689 40.6547 45.7375 40.6547 45.7861C40.6386 45.9155 40.6225 46.0288 40.6063 46.1582C40.6063 46.2068 40.6063 46.2553 40.5902 46.3039C40.574 46.4657 40.5418 46.6113 40.5256 46.7731V46.7893V46.8055C40.4934 46.9512 40.461 47.113 40.4288 47.2586V47.3072C40.3965 47.4528 40.3642 47.5984 40.332 47.744C40.332 47.7603 40.3158 47.7926 40.3158 47.8088C40.2836 47.9544 40.2513 48.1 40.2029 48.2457V48.2942C40.1545 48.456 40.1061 48.6016 40.0738 48.7473C40.0576 48.7635 40.0576 48.7796 40.0576 48.7796C40.0092 48.9414 39.9608 49.1032 39.9124 49.265C39.8479 49.4269 39.7995 49.5725 39.7349 49.7343C39.6704 49.8961 39.622 50.0579 39.5575 50.2035C39.4929 50.3654 39.4284 50.511 39.3638 50.6728H39.3477C39.2831 50.8184 39.2186 50.9802 39.1379 51.1259C39.1217 51.1744 39.1056 51.2068 39.0895 51.2391C39.0733 51.2553 39.0733 51.2715 39.0572 51.2877C38.0085 53.4074 36.4595 55.2682 34.5233 56.7245C34.3942 56.8054 34.2651 56.9025 34.1361 56.9995C34.1038 57.0319 34.0554 57.0481 34.0231 57.0804C33.9102 57.1614 33.7972 57.2423 33.6681 57.3232L33.7166 57.4203H33.7327C33.9586 57.3879 34.1845 57.3555 34.4104 57.3232H34.4265C34.8461 57.2584 35.2656 57.1775 35.6851 57.0966C35.798 57.0804 35.9271 57.0481 36.04 57.0157C36.1207 56.9995 36.1853 56.9834 36.2659 56.9672C36.3789 56.951 36.4918 56.9186 36.6048 56.9024C36.7016 56.8701 36.7984 56.8539 36.8952 56.8215C38.5087 56.4332 40.0738 55.8992 41.5743 55.2682C39.0089 58.7794 35.5721 61.6111 31.5545 63.4719C33.41 63.3425 35.2656 63.035 37.0565 62.5172C43.559 60.5917 49.0287 56.2066 52.3041 50.3006C51.6426 54.0384 50.1582 57.5982 47.9638 60.705C49.5289 59.6694 50.9649 58.472 52.2719 57.1128C55.8861 53.3264 58.258 48.5207 59.0647 43.359C59.6133 45.9156 59.7747 48.5531 59.5326 51.1582C71.1821 34.8639 60.5007 17.971 56.0313 13.5213C56.0152 13.4889 55.9991 13.4727 55.9991 13.4404C55.9829 13.4566 55.9829 13.4566 55.9829 13.4727C55.9829 13.4565 55.9829 13.4565 55.9668 13.4404C55.9668 13.6345 55.9506 13.8287 55.9345 14.0229C55.8861 14.395 55.8377 14.751 55.7732 15.107C55.6925 15.463 55.5957 15.8189 55.4989 16.1749C55.3859 16.5147 55.2569 16.8707 55.1116 17.2105C54.9664 17.5341 54.8051 17.8739 54.6276 18.1976C54.4501 18.505 54.2565 18.8286 54.0467 19.1199C53.837 19.4273 53.6111 19.7186 53.3852 19.9936C53.1432 20.2849 52.885 20.5438 52.6268 20.8027C52.4655 20.9483 52.3203 21.0778 52.1589 21.2072C52.0298 21.3205 51.9169 21.4176 51.7878 21.5308C51.4974 21.7574 51.207 21.9677 50.8843 22.1619C50.5777 22.3561 50.255 22.5502 49.9323 22.712C49.5935 22.8739 49.2546 23.0195 48.9158 23.1651C48.5769 23.2946 48.222 23.4078 47.867 23.5049C47.512 23.602 47.1409 23.6829 46.786 23.7476C46.4149 23.8124 46.0437 23.8447 45.6888 23.8771C45.4306 23.8933 45.1725 23.9094 44.9143 23.9094C44.5432 23.9094 44.1721 23.8771 43.8171 23.8447C43.446 23.8123 43.0749 23.7638 42.7199 23.6828C42.3488 23.6181 41.9939 23.521 41.6389 23.4078H41.6227C41.9777 23.3754 42.3327 23.343 42.6876 23.2783C43.0587 23.2136 43.4137 23.1327 43.7687 23.0356C44.1237 22.9385 44.4786 22.8253 44.8175 22.6958C45.1724 22.5664 45.5113 22.4046 45.834 22.2427C46.1728 22.0809 46.4794 21.9029 46.8021 21.7088C47.1086 21.4984 47.4152 21.2881 47.7056 21.0615C47.9961 20.835 48.2704 20.5923 48.5285 20.3334C48.8028 20.0907 49.0448 19.8156 49.2869 19.5405C49.5289 19.2493 49.7548 18.958 49.9645 18.6667C49.9968 18.6182 50.0291 18.5535 50.0614 18.5049C50.2227 18.246 50.384 17.9871 50.5293 17.7282C50.7067 17.4046 50.8681 17.081 51.0133 16.7412C51.1585 16.4014 51.2876 16.0616 51.4006 15.7056C51.5135 15.3658 51.5942 15.0098 51.6749 14.6539C51.7394 14.2817 51.8039 13.9257 51.8362 13.5697C51.8684 13.1976 51.9008 12.8254 51.9008 12.4694C51.9008 12.2105 51.8846 11.9516 51.8685 11.6928C51.8363 11.3206 51.7878 10.9646 51.7394 10.6086C51.6749 10.2365 51.5942 9.88049 51.4974 9.5245C51.3845 9.18471 51.2715 8.82872 51.1424 8.48893C51.0134 8.14912 50.852 7.80932 50.6907 7.4857C50.5132 7.16208 50.3357 6.83846 50.1421 6.53103C49.9323 6.22359 49.7226 5.93233 49.4967 5.64107C49.2547 5.36599 49.0126 5.09092 48.7545 4.81584C48.6254 4.6864 48.4802 4.54077 48.3349 4.41132C47.6089 3.84498 46.8505 3.31101 46.0922 2.82558C45.9792 2.76084 45.8824 2.71232 45.7695 2.66377C45.237 2.32397 44.7368 2.14589 44.2366 1.98408Z" fill="#E0234E"/>
</svg>
