<svg width="64" height="64" viewBox="0 0 64 64" fill="none" xmlns="http://www.w3.org/2000/svg">
<path d="M53.156 34.608C51.1053 34.6187 49.3293 35.1107 47.8413 35.8454C47.2973 34.7587 46.7453 33.8027 46.6533 33.092C46.5453 32.2627 46.42 31.7667 46.5507 30.7787C46.6813 29.7907 47.2533 28.3907 47.2453 28.2854C47.2373 28.18 47.1173 27.6774 45.9347 27.668C44.752 27.66 43.74 27.896 43.6213 28.208C43.5027 28.52 43.2747 29.2227 43.1333 29.956C42.9267 31.028 40.772 34.8534 39.5493 36.8534C39.1493 36.072 38.8093 35.384 38.7387 34.84C38.6307 34.0107 38.5053 33.5147 38.636 32.5267C38.7667 31.5387 39.3387 30.1387 39.3307 30.0334C39.3227 29.928 39.2027 29.4254 38.02 29.416C36.8373 29.408 35.8253 29.644 35.7067 29.956C35.588 30.268 35.46 30.9974 35.2187 31.704C34.976 32.4094 32.1133 38.7894 31.3627 40.444C30.98 41.2867 30.648 41.964 30.4133 42.4254L30.412 42.4227C30.412 42.4227 30.3973 42.4534 30.3733 42.5054C30.172 42.8987 30.0533 43.116 30.0533 43.116C30.0533 43.116 30.0547 43.1187 30.0573 43.124C29.8973 43.4134 29.7267 43.6814 29.6427 43.6814C29.584 43.6814 29.4653 42.912 29.668 41.856C30.0947 39.6427 31.1173 36.192 31.108 36.072C31.1027 36.0107 31.2987 35.4094 30.44 35.0947C29.6053 34.7894 29.308 35.2987 29.232 35.3C29.1587 35.3014 29.104 35.48 29.104 35.48C29.104 35.48 30.0333 31.5987 27.3307 31.5987C25.64 31.5987 23.2987 33.448 22.1453 35.124C21.4173 35.5214 19.8587 36.372 18.2067 37.28C17.572 37.6294 16.924 37.9854 16.3093 38.324C16.268 38.2774 16.2253 38.232 16.1827 38.1854C12.904 34.688 6.84535 32.2147 7.10135 27.512C7.19468 25.8027 7.78935 21.3014 18.7453 15.8427C27.72 11.3707 34.9053 12.6014 36.1467 15.328C37.92 19.2254 32.3067 26.4667 22.9867 27.512C19.436 27.9107 17.5653 26.5334 17.1 26.0214C16.6107 25.4814 16.5373 25.4574 16.3547 25.5587C16.0573 25.724 16.2453 26.2 16.3547 26.484C16.6333 27.208 17.7747 28.492 19.7213 29.132C21.4347 29.6947 25.604 30.0027 30.6453 28.052C36.2933 25.868 40.7027 19.7907 39.4067 14.712C38.0893 9.5467 29.524 7.84803 21.4173 10.728C16.5867 12.4427 11.364 15.1334 7.60801 18.6454C3.14268 22.8214 2.43068 26.4574 2.72401 27.976C3.76668 33.3734 11.2053 36.888 14.184 39.492C14.0373 39.5734 13.8987 39.6494 13.7733 39.7187C12.28 40.4574 6.60935 43.4254 5.19068 46.56C3.58135 50.116 5.44668 52.668 6.68135 53.012C10.5067 54.076 14.432 52.1614 16.5427 49.0147C18.652 45.8694 18.3947 41.772 17.4267 39.9027C17.4147 39.88 17.4013 39.8574 17.3893 39.8334C17.7747 39.6054 18.168 39.3734 18.5573 39.144C19.3173 38.6974 20.064 38.2814 20.7107 37.9294C20.348 38.9214 20.0827 40.112 19.9453 41.8307C19.7827 43.8494 20.6107 46.4587 21.6933 47.4854C22.1707 47.9374 22.744 47.948 23.1067 47.948C24.3667 47.948 24.9413 46.9 25.5747 45.66C26.3507 44.14 27.04 42.3694 27.04 42.3694C27.04 42.3694 26.176 47.1507 28.5307 47.1507C29.3893 47.1507 30.252 46.0374 30.6373 45.4707C30.6387 45.4774 30.6387 45.48 30.6387 45.48C30.6387 45.48 30.6613 45.4427 30.7053 45.3694C30.7947 45.2334 30.8453 45.1467 30.8453 45.1467C30.8453 45.1467 30.8467 45.1374 30.8493 45.1214C31.1947 44.5227 31.96 43.1574 33.1067 40.9054C34.5893 37.996 36.0107 34.3507 36.0107 34.3507C36.0107 34.3507 36.1427 35.2414 36.576 36.716C36.8307 37.5827 37.372 38.5414 37.8 39.4614C37.456 39.9387 37.2453 40.212 37.2453 40.212C37.2453 40.212 37.2467 40.2174 37.2507 40.2267C36.976 40.592 36.668 40.9854 36.3453 41.3694C35.1747 42.7627 33.7813 44.3547 33.5947 44.8134C33.3747 45.3547 33.4267 45.752 33.852 46.0734C34.1627 46.3067 34.7147 46.344 35.292 46.3054C36.344 46.2347 37.0827 45.9734 37.448 45.8147C38.0173 45.6134 38.68 45.2974 39.3013 44.84C40.4493 43.996 41.1413 42.7894 41.0747 41.1894C41.0373 40.308 40.7573 39.4347 40.4013 38.6107C40.5053 38.4614 40.6093 38.3094 40.7147 38.1574C42.524 35.512 43.928 32.6054 43.928 32.6054C43.928 32.6054 44.06 33.496 44.4933 34.9707C44.712 35.716 45.1453 36.5307 45.5347 37.328C43.8333 38.7107 42.7787 40.3174 42.412 41.3707C41.7347 43.32 42.2653 44.2027 43.26 44.404C43.7107 44.4947 44.348 44.288 44.8267 44.0854C45.4227 43.888 46.1387 43.5587 46.808 43.0667C47.956 42.2227 49.06 41.0414 48.9933 39.4427C48.9627 38.7147 48.7653 37.992 48.4973 37.2987C49.94 36.6974 51.8067 36.364 54.1853 36.6414C59.288 37.2374 60.288 40.4227 60.0973 41.756C59.9053 43.0894 58.836 43.8227 58.4773 44.044C58.12 44.2654 58.0107 44.3427 58.04 44.5067C58.084 44.7454 58.2493 44.7374 58.5547 44.6854C58.9747 44.6147 61.2333 43.6014 61.3307 41.14C61.452 38.012 58.4587 34.58 53.156 34.608ZM13.8267 47.8667C12.136 49.7107 9.77601 50.4067 8.76268 49.82C7.66935 49.1867 8.10268 46.472 10.176 44.5147C11.44 43.3227 13.072 42.224 14.1547 41.548C14.4013 41.4 14.7627 41.1827 15.2027 40.9187C15.276 40.8774 15.3173 40.8547 15.3173 40.8547L15.316 40.852C15.4013 40.8014 15.488 40.7494 15.5773 40.6947C16.3333 43.48 15.6013 45.932 13.8267 47.8667ZM26.14 39.4974C25.552 40.932 24.32 44.604 23.5693 44.4067C22.9253 44.2374 22.5333 41.4467 23.4413 38.7C23.8973 37.3174 24.8733 35.6654 25.4467 35.024C26.3693 33.992 27.3853 33.6547 27.632 34.0734C27.9453 34.6067 26.5093 38.5974 26.14 39.4974ZM36.312 44.3507C36.0627 44.4814 35.8333 44.5627 35.728 44.5C35.6493 44.4534 35.8307 44.2814 35.8307 44.2814C35.8307 44.2814 37.1027 42.912 37.604 42.2894C37.896 41.9267 38.2333 41.496 38.6013 41.016C38.604 41.064 38.6053 41.112 38.6053 41.1587C38.6027 42.7987 37.0187 43.9054 36.312 44.3507ZM44.148 42.564C43.9613 42.432 43.9933 42.004 44.6053 40.6694C44.8453 40.1454 45.3947 39.264 46.3467 38.4214C46.4573 38.768 46.524 39.1 46.5227 39.4094C46.5107 41.4734 45.0387 42.244 44.148 42.564Z" fill="#F06292"/>
</svg>
