<svg width="105" height="64" viewBox="0 0 105 64" fill="none" xmlns="http://www.w3.org/2000/svg">
<g clip-path="url(#clip0_10_2095)">
<mask id="mask0_10_2095" style="mask-type:luminance" maskUnits="userSpaceOnUse" x="0" y="0" width="105" height="63">
<path d="M0 0H104.727V62.8364H0V0Z" fill="white"/>
</mask>
<g mask="url(#mask0_10_2095)">
<path fill-rule="evenodd" clip-rule="evenodd" d="M52.3636 0C38.4 0 29.6727 6.98182 26.1818 20.9455C31.4182 13.9636 37.5273 11.3455 44.5091 13.0909C48.4926 14.0858 51.3396 16.9775 54.4911 20.1755C59.6247 25.3867 65.567 31.4182 78.5454 31.4182C92.5091 31.4182 101.236 24.4364 104.727 10.4727C99.4909 17.4545 93.3818 20.0727 86.4 18.3273C82.4165 17.3324 79.5695 14.4407 76.4179 11.2427C71.2844 6.03151 65.3421 0 52.3636 0ZM26.1818 31.4182C12.2182 31.4182 3.49091 38.4 0 52.3636C5.23636 45.3818 11.3455 42.7636 18.3273 44.5091C22.3108 45.5059 25.1578 48.3956 28.3093 51.5937C33.4429 56.8048 39.3852 62.8364 52.3636 62.8364C66.3273 62.8364 75.0545 55.8545 78.5454 41.8909C73.3091 48.8727 67.2 51.4909 60.2182 49.7455C56.2347 48.7505 53.3876 45.8589 50.2361 42.6608C45.1025 37.4497 39.1602 31.4182 26.1818 31.4182Z" fill="#38BDF8"/>
</g>
</g>
<defs>
<clipPath id="clip0_10_2095">
<rect width="104.727" height="64" fill="white"/>
</clipPath>
</defs>
</svg>
